<svg width="155" height="55" viewBox="0 0 155 55" fill="none" xmlns="http://www.w3.org/2000/svg">
<path d="M31.3383 8.00999C32.9589 8.20559 34.5556 8.60418 36.0733 9.20785C38.9842 10.358 41.5982 12.2463 43.6151 14.6427C45.5128 16.8881 46.8819 19.5795 47.5702 22.4403C47.7697 23.2572 47.9091 24.088 48 24.9239C48 25.3305 47.7653 25.4985 47.4528 25.4978C46.0719 25.4947 44.691 25.4611 43.3128 25.3803C41.6413 25.273 39.9653 25.1024 38.3348 24.7054C36.8235 24.3357 35.3264 23.7451 34.1313 22.7232C33.0733 21.8321 32.3181 20.6253 31.833 19.3377C31.1555 17.5458 30.8917 15.631 30.7215 13.7327C30.5857 12.0435 30.5319 10.3485 30.5287 8.65371C30.5273 7.8812 31.3383 8.00999 31.3383 8.00999Z" fill="white"/>
<path d="M31.3383 48.4536C32.9589 48.258 34.5556 47.8594 36.0733 47.2558C38.9842 46.1056 41.5982 44.2173 43.6151 41.8209C45.5128 39.5755 46.8819 36.8841 47.5702 34.0233C47.7697 33.2064 47.9091 32.3756 48 31.5397C48 31.1331 47.7653 30.9651 47.4528 30.9658C46.0719 30.9689 44.691 31.0025 43.3128 31.0833C41.6413 31.1906 39.9653 31.3612 38.3348 31.7582C36.8235 32.1279 35.3264 32.7185 34.1313 33.7404C33.0733 34.6315 32.3181 35.8383 31.833 37.1259C31.1555 38.9178 30.8917 40.8326 30.7215 42.7309C30.5857 44.4201 30.5319 46.1151 30.5287 47.8099C30.5273 48.5824 31.3383 48.4536 31.3383 48.4536Z" fill="white"/>
<path d="M24.6617 48.4536C23.0411 48.258 21.4444 47.8594 19.9267 47.2558C17.0158 46.1056 14.4018 44.2173 12.3849 41.8209C10.4872 39.5755 9.11811 36.8841 8.42979 34.0233C8.2303 33.2064 8.09095 32.3756 8 31.5397C8 31.1331 8.23466 30.9651 8.54723 30.9658C9.92812 30.9689 11.309 31.0025 12.6872 31.0833C14.3587 31.1906 16.0347 31.3612 17.6652 31.7582C19.1765 32.1279 20.6736 32.7185 21.8687 33.7404C22.9267 34.6315 23.6819 35.8383 24.167 37.1259C24.8445 38.9178 25.1083 40.8326 25.2785 42.7309C25.4143 44.4201 25.4681 46.1151 25.4713 47.8099C25.4727 48.5824 24.6617 48.4536 24.6617 48.4536Z" fill="white"/>
<path d="M72.8086 28.1768C72.8086 29.9033 72.5293 31.4056 71.9707 32.6836C71.4121 33.9531 70.6377 34.973 69.6475 35.7432L72.7197 38.1553L70.2949 40.3008L66.3594 37.1396C65.9108 37.2158 65.4453 37.2539 64.9629 37.2539C63.431 37.2539 62.0641 36.8857 60.8623 36.1494C59.6605 35.4131 58.7295 34.3636 58.0693 33.001C57.4092 31.6299 57.0749 30.0557 57.0664 28.2783V27.3643C57.0664 25.5446 57.3923 23.945 58.0439 22.5654C58.7041 21.1774 59.6309 20.1152 60.8242 19.3789C62.026 18.6341 63.3971 18.2617 64.9375 18.2617C66.4779 18.2617 67.8447 18.6341 69.0381 19.3789C70.2399 20.1152 71.1667 21.1774 71.8184 22.5654C72.4785 23.945 72.8086 25.5404 72.8086 27.3516V28.1768ZM68.9492 27.3389C68.9492 25.4007 68.6022 23.9281 67.9082 22.9209C67.2142 21.9137 66.224 21.4102 64.9375 21.4102C63.6595 21.4102 62.6735 21.9095 61.9795 22.9082C61.2855 23.8984 60.9342 25.3542 60.9258 27.2754V28.1768C60.9258 30.0641 61.2728 31.5283 61.9668 32.5693C62.6608 33.6104 63.6595 34.1309 64.9629 34.1309C66.2409 34.1309 67.2227 33.6315 67.9082 32.6328C68.5938 31.6257 68.9408 30.1615 68.9492 28.2402V27.3389ZM75.6016 37V18.5156H82.0762C84.319 18.5156 86.0202 18.9473 87.1797 19.8105C88.3392 20.6654 88.9189 21.9222 88.9189 23.5811C88.9189 24.4867 88.6862 25.2865 88.2207 25.9805C87.7552 26.666 87.1077 27.1696 86.2783 27.4912C87.2262 27.7282 87.971 28.2064 88.5127 28.9258C89.0628 29.6452 89.3379 30.5254 89.3379 31.5664C89.3379 33.3438 88.7708 34.6895 87.6367 35.6035C86.5026 36.5176 84.8861 36.9831 82.7871 37H75.6016ZM79.4102 28.9512V33.9404H82.6729C83.57 33.9404 84.2682 33.7288 84.7676 33.3057C85.2754 32.874 85.5293 32.2816 85.5293 31.5283C85.5293 29.8356 84.6533 28.9766 82.9014 28.9512H79.4102ZM79.4102 26.2598H82.2285C84.1497 26.2259 85.1104 25.46 85.1104 23.9619C85.1104 23.124 84.8649 22.5231 84.374 22.1592C83.8916 21.7868 83.1257 21.6006 82.0762 21.6006H79.4102V26.2598ZM106.197 18.5156V30.6904C106.197 32.7132 105.562 34.3128 104.293 35.4893C103.032 36.6657 101.305 37.2539 99.1133 37.2539C96.9551 37.2539 95.2412 36.6826 93.9717 35.54C92.7021 34.3975 92.0547 32.8275 92.0293 30.8301V18.5156H95.8379V30.7158C95.8379 31.9261 96.1257 32.8105 96.7012 33.3691C97.2852 33.9193 98.0892 34.1943 99.1133 34.1943C101.255 34.1943 102.342 33.0687 102.376 30.8174V18.5156H106.197ZM124.352 37H120.543L113.129 24.8379V37H109.32V18.5156H113.129L120.556 30.7031V18.5156H124.352V37ZM141.211 21.6006H135.549V37H131.74V21.6006H126.154V18.5156H141.211V21.6006Z" fill="white"/>
</svg>
