<svg width="193" height="191" xmlns="http://www.w3.org/2000/svg">
 <g>
  <title>background</title>
  <rect x="-1" y="-1" width="195" height="193" id="canvas_background" fill="none"/>
 </g>

 <g>
  <title>Layer 1</title>
  <g id="svg_4" stroke="null">
   <path fill="#ff5d00" d="m102.38813,0c9.51317,0.74872 18.92566,2.87534 27.79916,6.39664c14.59901,5.75487 27.70897,15.20302 37.82405,27.19304c9.51735,11.23501 16.38378,24.70151 19.83586,39.01529c1.229,5.02084 2.00288,10.14654 2.43072,15.29531c-7.93183,0.03145 -15.86575,-0.12165 -23.7829,-0.58514c-8.38274,-0.5369 -16.78855,-1.39048 -24.96576,-3.37658c-7.57949,-1.84979 -15.08767,-4.80482 -21.08164,-9.91794c-5.30606,-4.45877 -9.09371,-10.49677 -11.52653,-16.93955c-3.39755,-8.96578 -4.72092,-18.54605 -5.57451,-28.04453c-0.77808,-9.65578 -1.01927,-19.34931 -0.95845,-29.03654z" id="svg_1" stroke="null"/>
   <path fill="#ff5d00" d="m0,102.44266c6.72381,-0.03565 13.44762,0.06711 20.16304,0.37961c8.34918,0.41945 16.71514,1.11364 24.92171,2.76628c7.1957,1.46389 14.35993,3.69537 20.58459,7.68016c3.86315,2.46637 7.2691,5.65211 9.97037,9.35587c4.70834,6.44487 7.27329,14.17117 8.90286,21.91215c1.95464,9.46073 2.66771,19.12909 3.03263,28.76599c0.2307,4.33084 0.17407,8.67216 0.3062,13.0051c-0.10277,1.32127 0.07131,2.64464 -0.05453,3.96801c-13.87126,-0.95426 -27.49295,-5.14667 -39.59413,-11.97744c-13.61121,-7.67597 -25.27615,-18.75368 -33.66099,-31.93705c-8.37016,-13.13932 -13.49795,-28.36751 -14.57175,-43.91868z" id="svg_2" stroke="null"/>
   <path fill="#ff5d00" d="m161.04844,103.41579c9.71869,-0.80535 19.47933,-1.02137 29.23158,-0.97103c-0.87875,11.05465 -3.61357,21.97507 -8.21496,32.07337c-6.82657,15.11913 -17.70505,28.36331 -31.15686,38.06313c-8.6428,6.24773 -18.34472,11.02738 -28.57095,14.06002c-6.49101,1.94625 -13.19385,3.12701 -19.94282,3.69117c-0.07341,-7.50399 0.10276,-15.00798 0.49076,-22.49938c0.52221,-8.59037 1.32546,-17.20591 3.29898,-25.60123c1.81623,-7.70533 4.73142,-15.36032 9.8676,-21.48851c4.48394,-5.44238 10.62471,-9.31392 17.17864,-11.78449c8.89447,-3.35981 18.39295,-4.69786 27.81803,-5.54305z" id="svg_3" stroke="null"/>
  </g>
 </g>
</svg>